<svg width="230" height="1648" viewBox="0 0 230 1648" fill="none" xmlns="http://www.w3.org/2000/svg">
<path d="M6 824V764.326C6 761.564 8.23858 759.326 11 759.326H210C212.761 759.326 215 757.087 215 754.326V664.488C215 661.727 212.761 659.488 210 659.488H11C8.23858 659.488 6 657.25 6 654.488V548.326C6 545.564 8.23858 543.326 11 543.326H210C212.761 543.326 215 541.087 215 538.326V426.512C215 423.75 212.761 421.512 210 421.512H11C8.23858 421.512 6 419.273 6 416.512V302.814C6 300.053 8.23858 297.814 11 297.814H210C212.761 297.814 215 295.575 215 292.814V178.488C215 175.727 212.761 173.488 210 173.488H11C8.23858 173.488 6 171.25 6 168.488V46C6 43.2386 8.23858 41 11 41H210C212.761 41 215 38.7614 215 36V0" stroke="#666634" stroke-opacity="0.31" stroke-width="12"/>
<path d="M82.1634 47V168.484C82.1634 171.252 84.4115 173.493 87.1791 173.484L151.929 173.282C154.696 173.273 156.944 175.514 156.944 178.281V293C156.944 295.761 154.706 298 151.944 298H116.329C113.568 298 111.329 300.239 111.329 303V416.925C111.329 419.716 109.045 421.966 106.255 421.925L48.8101 421.075C46.0201 421.034 43.7361 423.284 43.7361 426.075V538.5C43.7361 541.261 45.9747 543.5 48.7361 543.5H151.944C154.706 543.5 156.944 545.739 156.944 548.5V654.5C156.944 657.261 154.706 659.5 151.944 659.5H116.329C113.568 659.5 111.329 661.739 111.329 664.5V753.5" stroke="#666634" stroke-opacity="0.31" stroke-width="12.1349"/>
<path d="M86.3102 300.405L86.0078 416" stroke="#666634" stroke-opacity="0.31" stroke-width="7.72222"/>
<path d="M64.4702 297.842L65 416" stroke="#666634" stroke-opacity="0.31" stroke-width="7.72222"/>
<path d="M97 665V753.5" stroke="#666634" stroke-opacity="0.31" stroke-width="7.72222"/>
<path d="M75 665V753.5" stroke="#666634" stroke-opacity="0.31" stroke-width="7.72222"/>
<path d="M179 427V538" stroke="#666634" stroke-opacity="0.31" stroke-width="7.72222"/>
<path d="M157 427V538" stroke="#666634" stroke-opacity="0.31" stroke-width="7.72222"/>
<path d="M86 427V536" stroke="#666634" stroke-opacity="0.31" stroke-width="7.72222"/>
<path d="M65 427V536" stroke="#666634" stroke-opacity="0.31" stroke-width="7.72222"/>
<path d="M132 179L132.34 297.671" stroke="#666634" stroke-opacity="0.31" stroke-width="7.72222"/>
<path d="M111 179L110.5 297.671" stroke="#666634" stroke-opacity="0.31" stroke-width="7.72222"/>
<path d="M177.058 46.9998L177.442 167.5" stroke="#666634" stroke-opacity="0.31" stroke-width="7.72222"/>
<path d="M142.058 46.9998L142.442 167.5" stroke="#666634" stroke-opacity="0.31" stroke-width="12.13"/>
<path d="M199 47L199.5 167.5" stroke="#666634" stroke-opacity="0.31" stroke-width="7.72222"/>
<path d="M112.988 47V167.24C112.988 170.002 110.75 172.24 107.988 172.24H59.2176H34.6369C31.8755 172.24 29.6369 174.479 29.6369 177.24V290.962C29.6369 293.723 31.8755 295.962 34.6369 295.962H40.8095C43.5709 295.962 45.8095 298.201 45.8095 300.962V414.171C45.8095 416.932 48.0481 419.171 50.8095 419.171H188.437C191.198 419.171 193.437 421.409 193.437 424.171V534.304C193.437 537.065 191.198 539.304 188.437 539.304H125.176C122.414 539.304 120.176 541.542 120.176 544.304V652.557C120.176 655.318 117.937 657.557 115.176 657.557H99.4656C96.7042 657.557 94.4656 655.318 94.4656 652.557V549.259C94.4656 546.498 92.227 544.259 89.4656 544.259H50.8095C48.0481 544.259 45.8095 546.498 45.8095 549.259V653.5" stroke="#666634" stroke-opacity="0.31" stroke-width="2.75794"/>
<path d="M224 1648V1588.33C224 1585.56 221.761 1583.33 219 1583.33H11C8.23858 1583.33 6 1581.09 6 1578.33V1488.49C6 1485.73 8.23857 1483.49 11 1483.49H219C221.761 1483.49 224 1481.25 224 1478.49V1372.33C224 1369.56 221.761 1367.33 219 1367.33H11C8.23858 1367.33 6 1365.09 6 1362.33V1250.51C6 1247.75 8.23857 1245.51 11 1245.51H219C221.761 1245.51 224 1243.27 224 1240.51V1126.81C224 1124.05 221.761 1121.81 219 1121.81H11C8.23858 1121.81 6 1119.58 6 1116.81V1002.49C6 999.727 8.23857 997.488 11 997.488H219C221.761 997.488 224 995.25 224 992.488V870C224 867.239 221.761 865 219 865H11C8.23858 865 6 862.761 6 860V824" stroke="#666634" stroke-opacity="0.31" stroke-width="12"/>
<path d="M144.557 871V992.266C144.557 995.027 142.318 997.266 139.557 997.266H71.5555C68.7941 997.266 66.5555 999.504 66.5555 1002.27V1115.65C66.5555 1118.41 68.7941 1120.65 71.5555 1120.65H109.135C111.896 1120.65 114.135 1122.88 114.135 1125.65V1238.85C114.135 1241.62 116.373 1243.85 119.135 1243.85H179.639C182.4 1243.85 184.639 1246.09 184.639 1248.85V1360.87C184.639 1363.63 182.4 1365.87 179.639 1365.87H71.5555C68.7941 1365.87 66.5555 1368.11 66.5555 1370.87V1476.56C66.5555 1479.32 68.7941 1481.56 71.5555 1481.56H109.135C111.896 1481.56 114.135 1483.8 114.135 1486.56V1582.89" stroke="#666634" stroke-opacity="0.31" stroke-width="12.1349"/>
<path d="M140.116 1128V1243.85" stroke="#666634" stroke-opacity="0.31" stroke-width="7.72222"/>
<path d="M163 1128L163.012 1243.85" stroke="#666634" stroke-opacity="0.31" stroke-width="7.72222"/>
<path d="M128.841 1479.85V1583.41" stroke="#666634" stroke-opacity="0.31" stroke-width="7.72222"/>
<path d="M151.622 1477.8V1583.41" stroke="#666634" stroke-opacity="0.31" stroke-width="7.72222"/>
<path d="M43.7751 1246.25V1365.7" stroke="#666634" stroke-opacity="0.31" stroke-width="7.72222"/>
<path d="M66.5555 1243.68V1365.7" stroke="#666634" stroke-opacity="0.31" stroke-width="7.72222"/>
<path d="M140.087 1246.25V1365.7" stroke="#666634" stroke-opacity="0.31" stroke-width="7.72222"/>
<path d="M162.868 1243.68V1365.7" stroke="#666634" stroke-opacity="0.31" stroke-width="7.72222"/>
<path d="M92.1097 1003L92.0056 1115" stroke="#666634" stroke-opacity="0.31" stroke-width="7.72222"/>
<path d="M115 1003V1116" stroke="#666634" stroke-opacity="0.31" stroke-width="7.72222"/>
<path d="M23 871V991.5" stroke="#666634" stroke-opacity="0.31" stroke-width="7.72222"/>
<path d="M46 871L44.9959 991.496" stroke="#666634" stroke-opacity="0.31" stroke-width="7.72222"/>
<path d="M82 871L82 991.5" stroke="#666634" stroke-opacity="0.31" stroke-width="12.1349"/>
<path d="M112.405 871V991.241C112.405 994.002 114.643 996.241 117.405 996.241H168.491H194.345C197.107 996.241 199.345 998.479 199.345 1001.24V1114.96C199.345 1117.72 197.107 1119.96 194.345 1119.96H187.476C184.715 1119.96 182.476 1122.2 182.476 1124.96V1238.17C182.476 1240.93 180.238 1243.17 177.476 1243.17H33.492C30.7306 1243.17 28.492 1245.41 28.492 1248.17V1358.3C28.492 1361.07 30.7306 1363.3 33.492 1363.3H99.9074C102.669 1363.3 104.907 1365.54 104.907 1368.3V1476.56C104.907 1479.32 107.146 1481.56 109.907 1481.56H126.725C129.486 1481.56 131.725 1479.32 131.725 1476.56V1373.26C131.725 1370.5 133.963 1368.26 136.725 1368.26H177.476C180.238 1368.26 182.476 1370.5 182.476 1373.26V1481.56" stroke="#666634" stroke-opacity="0.31" stroke-width="2.75794"/>
</svg>
